<svg width="500" height="500" viewBox="0 0 500 500" fill="none" xmlns="http://www.w3.org/2000/svg">
<rect width="500" height="500" rx="86" fill="#01147B"/>
<path d="M77.72 276.54C77.28 276.54 76.8767 276.32 76.51 275.88C76.1433 275.44 75.96 274.817 75.96 274.01C75.96 265.65 75.7033 257.547 75.19 249.7C74.75 241.78 74.2367 233.787 73.65 225.72C73.5767 224.987 73.2833 224.73 72.77 224.95C72.2567 225.17 71.8167 225.683 71.45 226.49C68.9567 231.477 66.5733 236.463 64.3 241.45C62.1 246.437 60.12 251.46 58.36 256.52C57.3333 259.527 56.71 262.057 56.49 264.11C56.3433 266.163 56.6 267.777 57.26 268.95C57.9933 270.05 59.13 270.82 60.67 271.26C61.2567 271.407 61.8433 271.663 62.43 272.03C63.0167 272.323 63.2 272.837 62.98 273.57C62.8333 274.083 62.3933 274.487 61.66 274.78C61 275.073 60.3767 275.22 59.79 275.22C57.81 275.22 56.27 275.183 55.17 275.11C54.07 275.037 53.08 275 52.2 275C51.32 274.927 50.11 274.89 48.57 274.89C46.8833 274.89 45.05 274.927 43.07 275C41.09 275.073 39.4033 275.147 38.01 275.22C36.6167 275.293 35.92 275.33 35.92 275.33C34.16 275.33 33.4633 274.78 33.83 273.68C34.05 273.02 34.5267 272.617 35.26 272.47C35.9933 272.25 36.7267 271.993 37.46 271.7C39.22 271.04 40.7967 270.307 42.19 269.5C43.6567 268.693 45.1233 267.373 46.59 265.54C48.0567 263.707 49.67 260.957 51.43 257.29L69.36 220.66C70.8267 217.653 71.6333 215.27 71.78 213.51C71.9267 211.75 71.23 210.32 69.69 209.22C68.2233 208.12 65.73 207.167 62.21 206.36C61.33 206.14 60.6333 205.92 60.12 205.7C59.68 205.48 59.46 205.003 59.46 204.27C59.46 203.463 59.9 202.987 60.78 202.84C61.66 202.693 62.5033 202.62 63.31 202.62C64.85 202.62 66.9767 202.657 69.69 202.73C72.4033 202.803 75.19 202.913 78.05 203.06C80.91 203.133 83.2567 203.17 85.09 203.17C87.1433 203.17 88.4267 203.757 88.94 204.93C89.5267 206.103 89.7467 207.57 89.6 209.33C89.5267 211.09 89.5267 212.887 89.6 214.72L91.25 249.81C91.3233 250.47 91.5067 250.91 91.8 251.13C92.1667 251.35 92.68 251.13 93.34 250.47C97.2267 246.583 101.04 242.33 104.78 237.71C108.52 233.017 112.003 228.397 115.23 223.85C118.457 219.303 121.207 215.343 123.48 211.97C124.507 210.43 125.423 209.11 126.23 208.01C127.037 206.837 127.697 205.81 128.21 204.93C128.87 203.977 129.64 203.5 130.52 203.5H136.02C138.22 203.5 140.31 203.427 142.29 203.28C144.27 203.133 146.103 202.987 147.79 202.84C149.55 202.693 151.09 202.62 152.41 202.62C153.217 202.62 153.84 202.73 154.28 202.95C154.72 203.097 154.94 203.5 154.94 204.16C154.94 204.82 154.427 205.443 153.4 206.03C152.373 206.543 150.87 207.057 148.89 207.57C147.203 208.01 145.773 208.67 144.6 209.55C143.427 210.43 142.437 211.53 141.63 212.85C140.897 214.17 140.273 215.747 139.76 217.58C137.78 225.133 135.873 232.833 134.04 240.68C132.28 248.527 130.593 256.373 128.98 264.22C128.613 266.053 128.98 267.557 130.08 268.73C131.18 269.83 132.72 270.673 134.7 271.26C135.287 271.48 135.763 271.737 136.13 272.03C136.57 272.323 136.68 272.837 136.46 273.57C136.313 274.083 135.983 274.487 135.47 274.78C134.957 275.073 134.407 275.22 133.82 275.22C132.28 275.22 130.373 275.183 128.1 275.11C125.9 275.037 123.7 274.963 121.5 274.89C119.373 274.817 117.577 274.78 116.11 274.78C114.643 274.78 112.92 274.817 110.94 274.89C108.96 274.963 106.943 275.037 104.89 275.11C102.91 275.257 101.113 275.33 99.5 275.33C98.9133 275.33 98.4 275.183 97.96 274.89C97.5933 274.597 97.4833 274.193 97.63 273.68C97.85 273.02 98.2533 272.507 98.84 272.14C99.4267 271.7 100.087 271.407 100.82 271.26C103.827 270.527 105.99 269.757 107.31 268.95C108.63 268.07 109.62 266.53 110.28 264.33C111.527 260.223 112.663 256.19 113.69 252.23C114.717 248.197 115.707 244.2 116.66 240.24C117.687 236.207 118.677 232.173 119.63 228.14C119.777 227.7 119.74 227.517 119.52 227.59C119.3 227.59 118.97 227.847 118.53 228.36L91.14 259.93L80.58 274.45C80.2867 274.89 79.8467 275.33 79.26 275.77C78.6733 276.283 78.16 276.54 77.72 276.54ZM167.936 276.54C164.93 276.54 162.106 275.88 159.466 274.56C156.826 273.167 154.7 271.26 153.086 268.84C151.473 266.42 150.666 263.56 150.666 260.26C150.666 256.887 151.4 253.293 152.866 249.48C154.333 245.593 156.496 241.963 159.356 238.59C162.216 235.143 165.7 232.357 169.806 230.23C173.913 228.03 178.606 226.93 183.886 226.93C189.02 226.93 193.163 228.36 196.316 231.22C199.543 234.007 201.156 238.003 201.156 243.21C201.156 246.583 200.423 250.213 198.956 254.1C197.49 257.913 195.326 261.543 192.466 264.99C189.606 268.363 186.123 271.15 182.016 273.35C177.91 275.477 173.216 276.54 167.936 276.54ZM170.136 272.03C171.53 272.03 172.923 271.223 174.316 269.61C175.783 267.923 177.176 265.723 178.496 263.01C179.816 260.297 180.99 257.327 182.016 254.1C183.043 250.8 183.85 247.537 184.436 244.31C185.096 241.01 185.426 238.04 185.426 235.4C185.426 233.933 185.133 232.87 184.546 232.21C183.96 231.477 183.08 231.11 181.906 231.11C180.733 231.11 179.45 231.953 178.056 233.64C176.663 235.253 175.27 237.417 173.876 240.13C172.556 242.843 171.346 245.85 170.246 249.15C169.146 252.377 168.23 255.603 167.496 258.83C166.836 262.057 166.506 264.99 166.506 267.63C166.506 269.097 166.836 270.197 167.496 270.93C168.23 271.663 169.11 272.03 170.136 272.03ZM225.973 276.54C222.967 276.54 220.51 275.953 218.603 274.78C216.77 273.533 215.597 271.81 215.083 269.61C214.643 267.41 214.973 264.77 216.073 261.69L222.783 243.21C223.15 242.183 223.113 241.56 222.673 241.34C222.307 241.047 222.05 240.9 221.903 240.9C221.097 240.9 220.033 241.267 218.713 242C217.467 242.66 216.587 243.21 216.073 243.65C215.56 244.09 215.083 244.493 214.643 244.86C214.203 245.153 213.873 245.3 213.653 245.3C212.553 245.3 212.003 244.823 212.003 243.87C212.003 243.503 212.223 242.99 212.663 242.33C213.177 241.597 213.8 240.753 214.533 239.8C215.56 238.553 216.953 237.197 218.713 235.73C220.473 234.263 222.38 232.87 224.433 231.55C226.487 230.157 228.467 229.057 230.373 228.25C232.353 227.37 234.003 226.93 235.323 226.93C236.35 226.93 237.267 227.297 238.073 228.03C238.953 228.69 239.65 229.497 240.163 230.45C240.677 231.33 240.823 232.063 240.603 232.65L232.133 259.71C231.4 262.203 231.253 264.037 231.693 265.21C232.207 266.31 233.49 266.86 235.543 266.86C236.863 266.86 238.44 266.163 240.273 264.77C242.18 263.377 244.013 261.58 245.773 259.38C247.533 257.18 249 254.87 250.173 252.45C251.347 250.03 251.933 247.793 251.933 245.74C251.933 243.76 251.603 242.147 250.943 240.9C250.283 239.58 249.403 238.407 248.303 237.38C247.57 236.647 246.983 235.987 246.543 235.4C246.103 234.813 245.883 234.117 245.883 233.31C245.883 232.65 246.543 231.843 247.863 230.89C249.257 229.863 250.833 228.947 252.593 228.14C254.353 227.333 255.783 226.93 256.883 226.93C258.13 226.93 259.23 227.7 260.183 229.24C261.137 230.707 261.613 233.09 261.613 236.39C261.613 239.397 260.917 242.55 259.523 245.85C258.13 249.077 256.297 252.267 254.023 255.42C251.823 258.573 249.403 261.507 246.763 264.22C243.537 267.593 240.163 270.49 236.643 272.91C233.123 275.33 229.567 276.54 225.973 276.54ZM278.134 276.54C276.301 276.54 274.651 275.843 273.184 274.45C271.717 272.983 270.984 271.553 270.984 270.16C270.984 269.793 271.021 269.427 271.094 269.06C271.167 268.62 271.314 268.143 271.534 267.63C273.441 263.303 275.274 258.94 277.034 254.54C278.867 250.14 280.664 245.813 282.424 241.56C282.571 241.193 282.424 241.01 281.984 241.01C281.397 241.01 280.737 241.193 280.004 241.56C279.271 241.853 278.501 242.257 277.694 242.77C276.961 243.21 276.191 243.65 275.384 244.09C274.284 244.677 273.514 244.823 273.074 244.53C272.634 244.163 272.414 243.687 272.414 243.1C272.414 242.513 272.927 241.67 273.954 240.57C275.054 239.397 276.447 238.15 278.134 236.83C279.821 235.437 281.617 234.08 283.524 232.76C285.431 231.44 287.227 230.303 288.914 229.35C290.674 228.323 292.067 227.627 293.094 227.26C294.267 226.82 295.477 226.893 296.724 227.48C297.971 227.993 298.924 228.763 299.584 229.79C300.317 230.743 300.501 231.697 300.134 232.65L288.034 262.79C287.961 263.01 287.887 263.267 287.814 263.56C287.814 263.78 287.814 263.963 287.814 264.11C287.814 264.33 287.851 264.513 287.924 264.66C288.071 264.807 288.217 264.88 288.364 264.88C288.877 264.88 289.831 264.477 291.224 263.67C292.617 262.79 294.084 261.8 295.624 260.7C297.164 259.527 298.411 258.463 299.364 257.51C299.584 257.29 299.731 257.18 299.804 257.18C300.244 257.18 300.611 257.363 300.904 257.73C301.197 258.097 301.344 258.5 301.344 258.94C301.344 260.26 300.537 261.91 298.924 263.89C297.311 265.87 295.294 267.85 292.874 269.83C290.454 271.737 287.924 273.35 285.284 274.67C282.644 275.917 280.261 276.54 278.134 276.54ZM297.934 219.78C296.174 219.78 294.707 219.12 293.534 217.8C292.361 216.407 291.774 214.867 291.774 213.18C291.774 210.54 292.727 208.193 294.634 206.14C296.541 204.087 298.887 203.06 301.674 203.06C303.581 203.06 305.047 203.83 306.074 205.37C307.101 206.91 307.614 208.523 307.614 210.21C307.614 212.703 306.661 214.94 304.754 216.92C302.847 218.827 300.574 219.78 297.934 219.78ZM327.287 276.65C325.233 276.65 323.033 276.063 320.687 274.89C318.34 273.643 316.323 271.993 314.637 269.94C313.023 267.813 312.217 265.43 312.217 262.79C312.217 258.023 313.06 253.513 314.747 249.26C316.507 244.933 318.817 241.12 321.677 237.82C324.537 234.447 327.727 231.807 331.247 229.9C334.84 227.92 338.433 226.93 342.027 226.93C346.647 226.93 349.947 227.81 351.927 229.57C353.98 231.257 355.007 233.237 355.007 235.51C355.007 238.077 354.163 240.277 352.477 242.11C350.79 243.87 348.627 245.41 345.987 246.73C343.347 247.977 340.487 249.003 337.407 249.81C334.4 250.617 331.577 251.313 328.937 251.9C328.643 251.973 328.423 252.083 328.277 252.23C328.13 252.377 328.02 252.597 327.947 252.89C327.873 253.183 327.8 253.513 327.727 253.88C327.727 254.173 327.69 254.503 327.617 254.87C327.543 257.437 328.24 259.747 329.707 261.8C331.247 263.78 333.52 264.77 336.527 264.77C338.433 264.77 340.23 264.293 341.917 263.34C343.603 262.313 345.327 260.883 347.087 259.05C347.893 258.17 348.517 257.73 348.957 257.73C349.617 257.73 349.947 258.133 349.947 258.94C349.947 259.16 349.91 259.453 349.837 259.82C349.837 260.113 349.763 260.37 349.617 260.59C348.223 263.303 346.463 265.907 344.337 268.4C342.283 270.82 339.827 272.8 336.967 274.34C334.18 275.88 330.953 276.65 327.287 276.65ZM329.707 247.72C331.393 247.207 333.007 246.657 334.547 246.07C336.16 245.41 337.59 244.603 338.837 243.65C340.083 242.623 341.11 241.413 341.917 240.02C342.723 238.553 343.2 236.793 343.347 234.74C343.42 233.933 343.2 233.127 342.687 232.32C342.173 231.513 341.367 231.11 340.267 231.11C339.02 231.11 337.81 231.55 336.637 232.43C335.463 233.237 334.327 234.373 333.227 235.84C332.2 237.233 331.32 238.92 330.587 240.9C329.853 242.807 329.303 244.86 328.937 247.06C328.863 247.647 329.12 247.867 329.707 247.72ZM425.824 276.32C425.53 276.32 425.2 276.137 424.834 275.77C424.54 275.403 424.394 274.963 424.394 274.45V252.34C424.394 251.387 423.917 250.91 422.964 250.91H399.754C399.24 250.91 398.8 250.763 398.434 250.47C398.067 250.103 397.884 249.773 397.884 249.48C397.884 248.893 397.994 248.197 398.214 247.39C398.434 246.51 398.764 245.74 399.204 245.08C399.717 244.347 400.34 243.98 401.074 243.98H422.854C423.587 243.98 424.027 243.87 424.174 243.65C424.32 243.357 424.394 242.953 424.394 242.44V222.42C424.394 221.687 424.687 221.063 425.274 220.55C425.86 219.963 426.557 219.523 427.364 219.23C428.244 218.863 428.977 218.68 429.564 218.68C430.15 218.68 430.59 218.937 430.884 219.45C431.177 219.963 431.324 220.55 431.324 221.21V242.44C431.324 242.953 431.434 243.357 431.654 243.65C431.874 243.87 432.24 243.98 432.754 243.98H455.194C455.854 243.98 456.44 244.127 456.954 244.42C457.467 244.713 457.724 245.153 457.724 245.74C457.724 246.693 457.357 247.793 456.624 249.04C455.89 250.287 455.01 250.91 453.984 250.91H432.754C431.8 250.91 431.324 251.387 431.324 252.34V273.13C431.324 273.863 430.957 274.487 430.224 275C429.564 275.44 428.794 275.77 427.914 275.99C427.107 276.21 426.41 276.32 425.824 276.32Z" fill="white"/>
<path d="M60.54 378.54C56.5067 378.54 52.7667 377.807 49.32 376.34C45.8733 374.8 42.8667 372.71 40.3 370.07C37.7333 367.43 35.7533 364.35 34.36 360.83C32.9667 357.237 32.27 353.35 32.27 349.17C32.27 342.57 33.5533 336.52 36.12 331.02C38.76 325.52 42.3533 320.753 46.9 316.72C51.52 312.687 56.8367 309.57 62.85 307.37C68.9367 305.097 75.4633 303.96 82.43 303.96C84.9967 303.96 87.27 304.217 89.25 304.73C91.23 305.17 92.9533 305.647 94.42 306.16C95.8133 306.6 96.9133 306.967 97.72 307.26C98.5267 307.48 99.37 307.59 100.25 307.59C100.763 307.59 101.24 307.553 101.68 307.48C102.12 307.407 102.597 307.223 103.11 306.93C103.697 306.563 104.247 306.27 104.76 306.05C105.347 305.83 105.897 305.72 106.41 305.72C107.143 305.72 107.583 305.977 107.73 306.49C107.95 306.93 107.803 307.553 107.29 308.36C106.337 309.607 105.31 311.367 104.21 313.64C103.11 315.913 102.083 318.297 101.13 320.79C100.25 323.21 99.5167 325.373 98.93 327.28C98.71 328.013 98.4167 328.637 98.05 329.15C97.6833 329.59 97.0967 329.81 96.29 329.81C95.5567 329.81 95.0433 329.297 94.75 328.27C94.4567 327.17 94.3467 325.777 94.42 324.09C94.5667 322.477 94.3833 320.863 93.87 319.25C93.43 317.563 92.77 316.023 91.89 314.63C90.7167 312.723 89.2867 311.147 87.6 309.9C85.9133 308.653 84.1167 308.03 82.21 308.03C78.3233 308.03 74.73 309.093 71.43 311.22C68.13 313.273 65.1967 316.06 62.63 319.58C60.1367 323.027 57.9733 326.913 56.14 331.24C54.38 335.567 53.0233 340.04 52.07 344.66C51.19 349.207 50.75 353.533 50.75 357.64C50.75 360.353 51.0433 362.737 51.63 364.79C52.2167 366.843 53.0967 368.567 54.27 369.96C55.4433 371.353 56.91 372.38 58.67 373.04C60.43 373.7 62.4833 374.03 64.83 374.03C67.69 374.03 70.4767 373.407 73.19 372.16C75.9767 370.84 78.69 368.97 81.33 366.55C83.97 364.13 86.5367 361.307 89.03 358.08C89.6167 357.273 90.0933 356.577 90.46 355.99C90.9 355.403 91.3767 355.11 91.89 355.11C92.4767 355.11 92.9533 355.403 93.32 355.99C93.76 356.577 93.87 357.273 93.65 358.08C93.1367 359.913 92.4767 362.003 91.67 364.35C90.8633 366.623 89.9833 368.787 89.03 370.84C88.0767 372.893 87.16 374.617 86.28 376.01C85.4733 377.33 84.8133 377.99 84.3 377.99C83.5667 377.99 83.0167 377.843 82.65 377.55C82.2833 377.33 81.88 377.073 81.44 376.78C81 376.487 80.45 376.267 79.79 376.12C79.2033 375.9 78.3233 375.79 77.15 375.79C76.27 375.79 75.3167 375.937 74.29 376.23C73.2633 376.45 72.1267 376.743 70.88 377.11C69.56 377.403 68.02 377.697 66.26 377.99C64.5733 378.357 62.6667 378.54 60.54 378.54ZM124.214 378.54C121.207 378.54 118.384 377.88 115.744 376.56C113.104 375.167 110.977 373.26 109.364 370.84C107.75 368.42 106.944 365.56 106.944 362.26C106.944 358.887 107.677 355.293 109.144 351.48C110.61 347.593 112.774 343.963 115.634 340.59C118.494 337.143 121.977 334.357 126.084 332.23C130.19 330.03 134.884 328.93 140.164 328.93C145.297 328.93 149.44 330.36 152.594 333.22C155.82 336.007 157.434 340.003 157.434 345.21C157.434 348.583 156.7 352.213 155.234 356.1C153.767 359.913 151.604 363.543 148.744 366.99C145.884 370.363 142.4 373.15 138.294 375.35C134.187 377.477 129.494 378.54 124.214 378.54ZM126.414 374.03C127.807 374.03 129.2 373.223 130.594 371.61C132.06 369.923 133.454 367.723 134.774 365.01C136.094 362.297 137.267 359.327 138.294 356.1C139.32 352.8 140.127 349.537 140.714 346.31C141.374 343.01 141.704 340.04 141.704 337.4C141.704 335.933 141.41 334.87 140.824 334.21C140.237 333.477 139.357 333.11 138.184 333.11C137.01 333.11 135.727 333.953 134.334 335.64C132.94 337.253 131.547 339.417 130.154 342.13C128.834 344.843 127.624 347.85 126.524 351.15C125.424 354.377 124.507 357.603 123.774 360.83C123.114 364.057 122.784 366.99 122.784 369.63C122.784 371.097 123.114 372.197 123.774 372.93C124.507 373.663 125.387 374.03 126.414 374.03ZM175.871 378.54C175.137 378.54 174.184 378.283 173.011 377.77C171.837 377.257 170.811 376.487 169.931 375.46C169.124 374.433 168.721 373.187 168.721 371.72C168.794 371.353 168.867 370.987 168.941 370.62C169.014 370.18 169.124 369.777 169.271 369.41L181.261 341.25C181.554 340.517 181.591 339.967 181.371 339.6C181.224 339.16 180.784 338.94 180.051 338.94C179.391 338.94 178.217 339.16 176.531 339.6C174.917 340.04 173.194 341.14 171.361 342.9C171.067 343.267 170.591 343.45 169.931 343.45C169.344 343.377 169.051 343.01 169.051 342.35C169.051 341.763 169.307 341.03 169.821 340.15C170.407 339.197 171.067 338.243 171.801 337.29C172.607 336.337 173.304 335.64 173.891 335.2C175.871 333.513 177.924 332.047 180.051 330.8C182.177 329.553 185.074 328.93 188.741 328.93C190.574 328.93 192.041 329.48 193.141 330.58C194.241 331.607 194.864 332.963 195.011 334.65C195.231 336.337 194.937 338.06 194.131 339.82L187.861 353.9C187.641 354.413 187.714 354.707 188.081 354.78C188.521 354.853 188.887 354.633 189.181 354.12C191.821 349.647 194.387 345.503 196.881 341.69C199.447 337.877 202.087 334.797 204.801 332.45C207.514 330.103 210.484 328.93 213.711 328.93C216.864 328.93 219.101 329.883 220.421 331.79C221.814 333.623 222.401 335.933 222.181 338.72C222.034 341.433 221.227 344.073 219.761 346.64L218.771 348.51C218.477 349.023 218.587 349.317 219.101 349.39C219.687 349.463 220.127 349.243 220.421 348.73C222.474 345.43 224.637 342.277 226.911 339.27C229.184 336.263 231.641 333.807 234.281 331.9C236.921 329.92 239.854 328.93 243.081 328.93C246.234 328.93 248.361 329.847 249.461 331.68C250.561 333.44 250.927 335.677 250.561 338.39C250.267 341.103 249.497 343.853 248.251 346.64L241.101 363.03C240.221 365.157 240.331 366.22 241.431 366.22C241.797 366.22 242.311 366.037 242.971 365.67C243.704 365.303 244.474 364.827 245.281 364.24C246.087 363.653 246.857 363.067 247.591 362.48C248.324 361.893 248.911 361.417 249.351 361.05C249.791 360.61 250.231 360.17 250.671 359.73C251.184 359.29 251.587 359.07 251.881 359.07C252.101 359.07 252.321 359.217 252.541 359.51C252.834 359.803 252.981 360.133 252.981 360.5C252.907 361.307 252.724 362.077 252.431 362.81C252.137 363.543 251.697 364.24 251.111 364.9C247.737 368.86 243.887 372.123 239.561 374.69C235.234 377.257 230.871 378.54 226.471 378.54C225.811 378.54 224.931 378.283 223.831 377.77C222.804 377.33 221.924 376.707 221.191 375.9C220.531 375.093 220.421 374.25 220.861 373.37L236.261 340.15C236.847 339.05 236.957 338.17 236.591 337.51C236.297 336.777 235.857 336.41 235.271 336.41C234.317 336.41 233.254 337.107 232.081 338.5C230.907 339.893 229.514 341.8 227.901 344.22C226.507 346.42 224.894 349.06 223.061 352.14C221.227 355.147 219.247 358.373 217.121 361.82C215.067 365.267 212.904 368.787 210.631 372.38C209.897 373.48 208.907 374.507 207.661 375.46C206.414 376.413 205.167 377.147 203.921 377.66C202.747 378.247 201.757 378.54 200.951 378.54C200.217 378.54 199.374 378.247 198.421 377.66C197.467 377.073 196.624 376.377 195.891 375.57C195.231 374.69 194.901 373.883 194.901 373.15C194.901 372.71 194.974 372.123 195.121 371.39C195.267 370.657 195.524 369.813 195.891 368.86L208.101 339.82C208.614 338.72 208.761 337.877 208.541 337.29C208.394 336.63 207.954 336.3 207.221 336.3C206.414 336.3 205.241 337.07 203.701 338.61C202.234 340.15 200.437 342.423 198.311 345.43C197.211 347.043 196.037 348.877 194.791 350.93C193.617 352.983 192.407 355.183 191.161 357.53C189.987 359.803 188.741 362.15 187.421 364.57C186.174 366.99 184.891 369.373 183.571 371.72C182.397 373.92 181.187 375.607 179.941 376.78C178.694 377.953 177.337 378.54 175.871 378.54ZM251.864 408.35C251.57 408.35 251.314 408.203 251.094 407.91C250.874 407.69 250.8 407.397 250.874 407.03C250.947 406.443 251.204 406.003 251.644 405.71C252.01 405.417 252.487 405.197 253.074 405.05C255.494 404.39 257.254 403.73 258.354 403.07C259.38 402.483 260.187 401.273 260.774 399.44L278.924 342.79C279.144 342.13 279.327 341.47 279.474 340.81C279.694 340.15 279.73 339.637 279.584 339.27C279.51 338.83 279.034 338.72 278.154 338.94C276.76 339.307 275.55 339.673 274.524 340.04C273.497 340.407 272.14 340.883 270.454 341.47C269.867 341.69 269.244 341.763 268.584 341.69C267.924 341.617 267.594 341.14 267.594 340.26C267.594 339.453 267.924 338.793 268.584 338.28C269.244 337.767 269.94 337.363 270.674 337.07C271.847 336.63 273.094 336.08 274.414 335.42C275.807 334.687 277.86 333.733 280.574 332.56C281.087 332.34 281.564 331.937 282.004 331.35C282.517 330.69 283.03 329.553 283.544 327.94C284.79 324.42 286.477 321.817 288.604 320.13C290.73 318.443 293.004 317.6 295.424 317.6C296.964 317.6 297.99 318.077 298.504 319.03C299.09 319.91 299.09 321.413 298.504 323.54L297.514 327.39C297.367 328.123 297.294 328.747 297.294 329.26C297.367 329.7 297.55 329.883 297.844 329.81C298.797 329.59 299.75 329.407 300.704 329.26C301.73 329.04 302.794 328.93 303.894 328.93C307.854 328.93 311.19 329.59 313.904 330.91C316.69 332.23 318.817 334.027 320.284 336.3C321.75 338.573 322.484 341.177 322.484 344.11C322.484 348.07 321.604 352.103 319.844 356.21C318.157 360.243 315.81 363.947 312.804 367.32C309.87 370.693 306.46 373.407 302.574 375.46C298.76 377.513 294.764 378.54 290.584 378.54C289.19 378.54 287.944 378.283 286.844 377.77C285.744 377.257 284.9 376.78 284.314 376.34C283.287 375.533 282.517 375.203 282.004 375.35C281.49 375.497 281.05 376.267 280.684 377.66L274.964 398.34C274.524 399.733 274.707 400.907 275.514 401.86C276.394 402.887 278.19 403.803 280.904 404.61C281.344 404.683 281.747 404.867 282.114 405.16C282.554 405.527 282.774 406.113 282.774 406.92C282.774 407.287 282.554 407.58 282.114 407.8C281.674 408.093 281.16 408.24 280.574 408.24C279.327 408.24 277.714 408.203 275.734 408.13C273.827 408.057 271.957 407.983 270.124 407.91C268.29 407.91 266.787 407.91 265.614 407.91C263.78 407.91 261.544 407.983 258.904 408.13C256.264 408.277 253.917 408.35 251.864 408.35ZM290.144 374.25C291.464 374.25 293.04 373.517 294.874 372.05C296.78 370.583 298.65 368.567 300.484 366C302.39 363.36 303.967 360.353 305.214 356.98C306.46 353.533 307.084 349.903 307.084 346.09C307.084 342.203 306.24 339.417 304.554 337.73C302.94 335.97 300.777 335.09 298.064 335.09C297.624 335.09 297.184 335.127 296.744 335.2C296.304 335.2 295.864 335.237 295.424 335.31L286.074 364.79C285.78 365.817 285.634 366.843 285.634 367.87C285.707 368.897 285.927 369.85 286.294 370.73C286.734 371.757 287.174 372.6 287.614 373.26C288.054 373.92 288.897 374.25 290.144 374.25ZM333.027 378.54C332.001 378.54 330.937 378.247 329.837 377.66C328.737 377.073 327.821 376.34 327.087 375.46C326.354 374.507 325.987 373.627 325.987 372.82C325.987 370.693 326.611 368.383 327.857 365.89C329.031 363.323 331.121 360.133 334.127 356.32C337.134 352.433 341.314 347.41 346.667 341.25C349.674 337.803 352.607 334.98 355.467 332.78C358.327 330.58 360.454 329.48 361.847 329.48C363.974 329.48 366.394 330.543 369.107 332.67C369.474 333.037 369.694 333.257 369.767 333.33C369.914 333.403 370.024 333.44 370.097 333.44C370.244 333.44 370.317 333.44 370.317 333.44C370.391 333.367 370.537 333.11 370.757 332.67C371.197 331.79 371.527 331.13 371.747 330.69C371.967 330.177 372.187 329.663 372.407 329.15C372.774 328.27 373.764 327.83 375.377 327.83C376.624 327.83 377.944 328.123 379.337 328.71C380.731 329.297 381.904 329.993 382.857 330.8C383.884 331.607 384.397 332.377 384.397 333.11C384.397 333.55 384.361 333.807 384.287 333.88L373.617 363.14C373.031 364.9 373.397 365.78 374.717 365.78C375.451 365.78 376.661 365.157 378.347 363.91C380.107 362.663 381.904 361.123 383.737 359.29C383.957 359.07 384.067 358.96 384.067 358.96C384.067 358.96 384.104 358.96 384.177 358.96C384.544 358.96 384.874 359.143 385.167 359.51C385.461 359.877 385.607 360.317 385.607 360.83C385.607 362.003 384.874 363.543 383.407 365.45C381.941 367.283 379.997 369.19 377.577 371.17C374.791 373.443 372.041 375.24 369.327 376.56C366.687 377.88 364.524 378.54 362.837 378.54C361.664 378.54 360.454 378.21 359.207 377.55C357.961 376.89 356.934 376.083 356.127 375.13C355.321 374.103 354.917 373.113 354.917 372.16C354.917 371.72 355.101 370.877 355.467 369.63C355.687 368.97 355.944 368.273 356.237 367.54C356.531 366.807 356.824 366.073 357.117 365.34C357.411 364.607 357.704 363.873 357.997 363.14C358.364 362.407 358.694 361.673 358.987 360.94C359.134 360.647 359.061 360.427 358.767 360.28C358.474 360.133 358.254 360.133 358.107 360.28C354.514 364.46 351.177 367.907 348.097 370.62C345.091 373.333 342.341 375.35 339.847 376.67C337.427 377.917 335.154 378.54 333.027 378.54ZM345.787 365.89C346.961 365.89 348.831 364.79 351.397 362.59C354.037 360.317 356.641 357.567 359.207 354.34C361.481 351.553 363.277 349.097 364.597 346.97C365.917 344.77 366.577 343.23 366.577 342.35C366.577 341.69 365.771 340.7 364.157 339.38C363.424 338.793 362.654 338.317 361.847 337.95C361.041 337.51 360.381 337.29 359.867 337.29C358.767 337.29 357.264 337.95 355.357 339.27C353.451 340.59 351.654 342.093 349.967 343.78C348.647 345.1 347.401 346.823 346.227 348.95C345.127 351.003 344.211 353.203 343.477 355.55C342.817 357.823 342.487 359.95 342.487 361.93C342.487 363.177 342.781 364.167 343.367 364.9C343.954 365.56 344.761 365.89 345.787 365.89ZM404.501 378.54C401.054 378.54 398.304 377.807 396.251 376.34C394.197 374.8 393.171 372.783 393.171 370.29C393.171 368.383 393.611 366.733 394.491 365.34C395.297 363.947 396.507 363.25 398.121 363.25C398.707 363.25 399.367 363.653 400.101 364.46C400.907 365.193 401.787 366.073 402.741 367.1C403.841 368.2 405.087 369.41 406.481 370.73C407.874 372.05 409.267 372.71 410.661 372.71C411.687 372.71 412.384 372.453 412.751 371.94C413.191 371.353 413.447 370.51 413.521 369.41C413.594 368.383 413.007 366.99 411.761 365.23C410.587 363.397 409.377 361.673 408.131 360.06C406.737 358.153 405.491 356.063 404.391 353.79C403.364 351.517 402.851 349.243 402.851 346.97C402.851 345.063 403.547 343.083 404.941 341.03C406.334 338.977 408.094 337.033 410.221 335.2C412.347 333.293 414.474 331.79 416.601 330.69C418.727 329.517 420.487 328.93 421.881 328.93C423.934 328.93 425.877 329.37 427.711 330.25C429.617 331.057 431.194 332.047 432.441 333.22C433.687 334.393 434.311 335.457 434.311 336.41C434.311 337.29 433.907 338.353 433.101 339.6C432.294 340.847 431.341 341.947 430.241 342.9C429.214 343.78 428.224 344.22 427.271 344.22C426.317 344.22 425.437 343.853 424.631 343.12C423.824 342.313 423.127 341.507 422.541 340.7C421.807 339.6 420.891 338.683 419.791 337.95C418.764 337.143 417.737 336.74 416.711 336.74C415.757 336.74 415.024 337.07 414.511 337.73C413.997 338.39 413.741 339.05 413.741 339.71C413.741 340.297 414.071 341.067 414.731 342.02C415.391 342.9 416.197 343.89 417.151 344.99C418.104 346.09 419.057 347.263 420.011 348.51C422.431 351.517 424.117 353.937 425.071 355.77C426.097 357.53 426.611 359.327 426.611 361.16C426.611 362.553 425.987 364.24 424.741 366.22C423.494 368.127 421.807 370.033 419.681 371.94C417.627 373.847 415.281 375.423 412.641 376.67C410.001 377.917 407.287 378.54 404.501 378.54ZM446.429 378.54C442.983 378.54 440.233 377.807 438.179 376.34C436.126 374.8 435.099 372.783 435.099 370.29C435.099 368.383 435.539 366.733 436.419 365.34C437.226 363.947 438.436 363.25 440.049 363.25C440.636 363.25 441.296 363.653 442.029 364.46C442.836 365.193 443.716 366.073 444.669 367.1C445.769 368.2 447.016 369.41 448.409 370.73C449.803 372.05 451.196 372.71 452.589 372.71C453.616 372.71 454.313 372.453 454.679 371.94C455.119 371.353 455.376 370.51 455.449 369.41C455.523 368.383 454.936 366.99 453.689 365.23C452.516 363.397 451.306 361.673 450.059 360.06C448.666 358.153 447.419 356.063 446.319 353.79C445.293 351.517 444.779 349.243 444.779 346.97C444.779 345.063 445.476 343.083 446.869 341.03C448.263 338.977 450.023 337.033 452.149 335.2C454.276 333.293 456.403 331.79 458.529 330.69C460.656 329.517 462.416 328.93 463.809 328.93C465.863 328.93 467.806 329.37 469.639 330.25C471.546 331.057 473.123 332.047 474.369 333.22C475.616 334.393 476.239 335.457 476.239 336.41C476.239 337.29 475.836 338.353 475.029 339.6C474.223 340.847 473.269 341.947 472.169 342.9C471.143 343.78 470.153 344.22 469.199 344.22C468.246 344.22 467.366 343.853 466.559 343.12C465.753 342.313 465.056 341.507 464.469 340.7C463.736 339.6 462.819 338.683 461.719 337.95C460.693 337.143 459.666 336.74 458.639 336.74C457.686 336.74 456.953 337.07 456.439 337.73C455.926 338.39 455.669 339.05 455.669 339.71C455.669 340.297 455.999 341.067 456.659 342.02C457.319 342.9 458.126 343.89 459.079 344.99C460.033 346.09 460.986 347.263 461.939 348.51C464.359 351.517 466.046 353.937 466.999 355.77C468.026 357.53 468.539 359.327 468.539 361.16C468.539 362.553 467.916 364.24 466.669 366.22C465.423 368.127 463.736 370.033 461.609 371.94C459.556 373.847 457.209 375.423 454.569 376.67C451.929 377.917 449.216 378.54 446.429 378.54Z" fill="white"/>
<path d="M244.732 89C239.368 89 234.106 89.2996 228.743 89.9986C216.903 91.5963 205.266 93.1941 193.73 96.1899C181.992 99.2855 170.557 103.48 159.628 108.672C136.859 119.357 116.519 134.336 99.5188 152.71C92.7389 160.2 86.4649 168.089 80.6968 176.377C79.3813 178.174 79.9885 179.672 82.0124 180.471C83.3279 180.871 84.6434 181.37 85.8577 181.769C88.1852 182.568 88.9947 182.269 90.4114 180.172C93.7508 175.578 96.989 170.685 100.834 166.491C105.084 161.997 109.233 157.404 113.382 152.91C118.24 148.416 123.299 144.122 128.46 140.028C199.802 84.1069 301.501 86.5035 370.111 145.72C388.123 161.298 402.897 180.172 413.624 201.342C414.838 203.738 416.154 206.235 417.267 208.731C420.1 214.923 420.748 218.597 425.4 216.321C426.42 215.821 426.42 215.821 427.44 215.322C429.086 214.517 430.523 213.924 429.815 211.727C425.868 200.543 419.493 189.758 413.017 179.772C406.338 169.586 398.849 160.1 390.45 151.312L389.944 150.813C376.688 136.932 361.509 125.049 344.711 115.563C338.032 111.668 331.05 108.173 323.865 105.377C318.198 102.781 312.329 100.584 306.359 98.7862C293.912 94.7918 280.959 91.9958 267.905 90.5977C260.214 89.699 252.524 89.1997 244.732 89.1997V89Z" fill="url(#paint0_radial_291_10)"/>
<defs>
<radialGradient id="paint0_radial_291_10" cx="0" cy="0" r="1" gradientUnits="userSpaceOnUse" gradientTransform="translate(425.424 214.257) scale(334.078 329.673)">
<stop stop-color="#00FFFF"/>
<stop offset="0.851126" stop-color="#00FFFF" stop-opacity="0.7"/>
<stop offset="0.97719" stop-color="#00FFFF" stop-opacity="0.05"/>
</radialGradient>
</defs>
</svg>
